<svg width="100%" height="100%" style="" viewBox="0 0 150 37" fill="CurrentColor" xmlns="http://www.w3.org/2000/svg">
<path d="M13.6315 27.732V18.2382L10.6108 24.9143H7.97077L4.95 18.2382V27.732H0V9.70896H5.40692L9.29077 18.1874L13.2 9.70896H18.5815V27.732H13.6315Z" fill="CurrentColor"></path>
<path d="M29.7892 27.8843C28.4185 27.8843 27.1746 27.6305 26.0577 27.1228C24.9408 26.5982 23.9762 25.9043 23.1639 25.0413C22.3685 24.1613 21.7508 23.1797 21.3108 22.0967C20.8877 20.9967 20.6762 19.8628 20.6762 18.6951C20.6762 17.4936 20.9046 16.3513 21.3616 15.2682C21.8185 14.1851 22.4531 13.2205 23.2654 12.3743C24.0946 11.5113 25.0677 10.8343 26.1846 10.3436C27.3185 9.85281 28.5539 9.60742 29.8908 9.60742C31.2616 9.60742 32.5054 9.86973 33.6223 10.3943C34.7392 10.902 35.6954 11.5959 36.4908 12.4759C37.2862 13.3559 37.8954 14.3459 38.3185 15.4459C38.7585 16.529 38.9785 17.6459 38.9785 18.7967C38.9785 19.9813 38.75 21.1151 38.2931 22.1982C37.8531 23.2813 37.2185 24.2543 36.3892 25.1174C35.5769 25.9636 34.6123 26.6405 33.4954 27.1482C32.3785 27.639 31.1431 27.8843 29.7892 27.8843ZM25.7023 18.7459C25.7023 19.5413 25.8462 20.3028 26.1339 21.0305C26.4385 21.7582 26.8954 22.3505 27.5046 22.8074C28.1308 23.2643 28.9092 23.4928 29.84 23.4928C30.8046 23.4928 31.5831 23.2559 32.1754 22.782C32.7846 22.3082 33.2331 21.7074 33.5208 20.9797C33.8085 20.2351 33.9523 19.4736 33.9523 18.6951C33.9523 17.8828 33.8 17.1213 33.4954 16.4105C33.1908 15.6997 32.7339 15.1243 32.1246 14.6843C31.5154 14.2274 30.7454 13.999 29.8146 13.999C28.8669 13.999 28.0885 14.2359 27.4792 14.7097C26.87 15.1667 26.4216 15.759 26.1339 16.4867C25.8462 17.1974 25.7023 17.9505 25.7023 18.7459Z" fill="CurrentColor"></path>
<path d="M41.0765 27.732V9.70896H46.0265V16.5628L51.5096 9.70896H57.0942L50.5449 17.7813L57.5511 27.732H51.8649L47.3972 21.1067L46.0265 22.5282V27.732H41.0765Z" fill="CurrentColor"></path>
<path d="M62.7659 9.70896H68.2997L74.0366 27.732H69.0105L67.9189 24.2036H63.1212L62.0551 27.732H57.0035L62.7659 9.70896ZM67.132 20.9036L65.5328 14.5574L63.8574 20.9036H67.132Z" fill="CurrentColor"></path>
<path d="M85.1789 18.5682C85.1789 17.4682 85.382 16.3936 85.7881 15.3443C86.2112 14.2782 86.8204 13.3136 87.6158 12.4505C88.4112 11.5874 89.3758 10.902 90.5097 10.3943C91.6604 9.86973 92.955 9.60742 94.3935 9.60742C96.1196 9.60742 97.6258 9.97127 98.912 10.699C100.198 11.4097 101.154 12.3574 101.78 13.542L97.9981 16.2328C97.7781 15.6405 97.4566 15.1836 97.0335 14.862C96.6273 14.5405 96.1789 14.3205 95.6881 14.202C95.2143 14.0667 94.7489 13.999 94.292 13.999C93.3443 13.999 92.5658 14.2359 91.9566 14.7097C91.3643 15.1836 90.9243 15.7843 90.6366 16.512C90.3489 17.2228 90.205 17.959 90.205 18.7205C90.205 19.5497 90.3658 20.3282 90.6873 21.0559C91.0258 21.7836 91.4996 22.3759 92.1089 22.8328C92.735 23.2728 93.4796 23.4928 94.3427 23.4928C94.7996 23.4928 95.265 23.4251 95.7389 23.2897C96.2127 23.1374 96.6443 22.9005 97.0335 22.579C97.4227 22.2574 97.7189 21.8259 97.922 21.2843L101.958 23.6959C101.603 24.5759 101.01 25.329 100.181 25.9551C99.352 26.5813 98.4127 27.0636 97.3635 27.402C96.3143 27.7236 95.2735 27.8843 94.2412 27.8843C92.9043 27.8843 91.6773 27.622 90.5604 27.0974C89.4604 26.5559 88.5043 25.8451 87.692 24.9651C86.8966 24.0682 86.2789 23.0697 85.8389 21.9697C85.3989 20.8528 85.1789 19.719 85.1789 18.5682Z" fill="CurrentColor"></path>
<path d="M107.61 9.70896H113.144L118.881 27.732H113.855L112.763 24.2036H107.966L106.9 27.732H101.848L107.61 9.70896ZM111.977 20.9036L110.377 14.5574L108.702 20.9036H111.977Z" fill="CurrentColor"></path>
<path d="M120.379 27.732V9.70896H128.654C129.534 9.70896 130.346 9.88665 131.091 10.242C131.836 10.5974 132.479 11.0797 133.02 11.689C133.562 12.2813 133.976 12.9497 134.264 13.6943C134.569 14.439 134.721 15.192 134.721 15.9536C134.721 16.9859 134.492 17.959 134.036 18.8728C133.579 19.7867 132.944 20.5313 132.132 21.1067L135.939 27.732H130.507L127.334 22.1982H125.329V27.732H120.379ZM125.329 17.8828H128.451C128.756 17.8828 129.035 17.7136 129.289 17.3751C129.559 17.0367 129.695 16.5628 129.695 15.9536C129.695 15.3274 129.542 14.8536 129.238 14.532C128.933 14.1936 128.629 14.0243 128.324 14.0243H125.329V17.8828Z" fill="CurrentColor"></path>
<path d="M150.353 23.4167V27.732H137.508V9.70896H150.124V14.0243H142.458V16.5628H149.008V20.5736H142.458V23.4167H150.353Z" fill="CurrentColor"></path>
<ellipse cx="80.1922" cy="25.2479" rx="2.88461" ry="2.7972" fill="#F2CD3F"></ellipse>
</svg>