<svg width="164" height="40" viewBox="0 0 164 40" fill="none" xmlns="http://www.w3.org/2000/svg">
<path d="M60.392 25.5608C60.392 29.0797 56.7175 29.8284 53.8708 29.8284C51.3912 29.8284 48.8168 28.715 47.8991 28.2762C47.6839 28.1741 47.549 27.9578 47.549 27.7195V23.96C47.549 23.6585 47.8906 23.4823 48.1349 23.6585C50.9901 25.7346 55.3246 26.2184 55.3246 25.0491C55.3246 23.791 47.408 24.1022 47.408 18.5668C47.408 15.5402 50.0943 13.9576 53.6873 13.9576C58.632 13.9576 59.9119 17.2771 60.0225 19.8662C60.031 20.0752 59.8621 20.249 59.6518 20.249H55.1009C54.8967 20.249 54.7302 20.0837 54.7302 19.8783V19.741C54.7302 18.8111 54.4154 18.3103 53.6982 18.3103C53.0394 18.3103 52.6663 18.8658 52.6663 19.3423C52.6663 22.189 60.3932 20.5784 60.3932 25.5596L60.392 25.5608ZM38.8083 19.3435C38.8083 18.867 39.1827 18.3115 39.8403 18.3115C40.5574 18.3115 40.8723 18.8123 40.8723 19.7422V19.8795C40.8723 20.0837 41.0376 20.2503 41.243 20.2503H45.7938C46.0029 20.2503 46.1731 20.0764 46.1646 19.8674C46.054 17.2796 44.774 13.9588 39.8294 13.9588C36.2363 13.9588 33.5501 15.5414 33.5501 18.568C33.5501 24.1034 41.4666 23.7922 41.4666 25.0503C41.4666 26.2196 37.1334 25.7358 34.2769 23.6597C34.0338 23.4823 33.6911 23.6597 33.6911 23.9612V27.7207C33.6911 27.959 33.8272 28.1753 34.0411 28.2774C34.9588 28.7162 37.5333 29.8296 40.0129 29.8296C42.8608 29.8296 46.5341 29.0821 46.5341 25.562C46.5341 20.5809 38.8071 22.1914 38.8071 19.3447L38.8083 19.3435ZM64.7119 7.00007C62.4997 7.00007 61.0557 8.14629 61.0557 10.0437C61.0557 11.9411 62.5009 13.0873 64.7119 13.0873C66.9229 13.0873 68.3681 11.9411 68.3681 10.0437C68.3681 8.14629 66.9229 7.00007 64.7119 7.00007V7.00007ZM17.8981 21.8888C17.8981 27.0753 16.3738 29.8284 13.284 29.8284C11.8181 29.8284 10.4993 29.2097 9.68612 27.2491L10.0775 33.3473C10.0909 33.5612 9.92193 33.7411 9.708 33.7411H4.37073C4.16652 33.7411 4 33.5758 4 33.3704V14.7732C4 14.569 4.16531 14.4025 4.37073 14.4025H7.9516C8.13514 14.4025 8.29072 14.5362 8.31746 14.7173L8.67968 17.254C9.48921 15.1464 10.9624 13.9576 13.0822 13.9576C16.2936 13.9576 17.8981 16.7022 17.8981 21.8888V21.8888ZM12.4113 21.8936C12.4113 19.9051 12.0819 18.3115 10.9867 18.3115C9.89154 18.3115 9.56214 19.9051 9.56214 21.8936C9.56214 23.8822 9.89154 25.4952 10.9867 25.4952C12.0819 25.4952 12.4113 23.8822 12.4113 21.8936V21.8936ZM32.2227 20.3499V28.9994C32.2227 29.2036 32.0574 29.3702 31.852 29.3702H28.2711C28.0876 29.3702 27.932 29.2365 27.9053 29.0554L27.6087 27.1045C26.6716 28.7685 24.9382 29.8296 23.1235 29.8296C20.4312 29.8296 18.8777 28.4865 18.8777 25.5316C18.8777 21.0464 23.1916 20.2952 26.9499 20.3669C26.6132 19.3629 25.9264 18.8488 24.5262 18.8488C22.6215 18.8488 20.7411 19.9999 19.8198 20.6599C19.5742 20.8349 19.2351 20.6599 19.2351 20.3584V16.8286C19.2351 16.6354 19.3263 16.453 19.4806 16.3363C20.2695 15.7371 22.884 13.96 26.1513 13.96C30.0822 13.96 32.224 16.7131 32.224 20.3511L32.2227 20.3499ZM27.1638 23.6512C27.1675 22.2729 27.0836 21.4147 27.0836 21.4147C26.3774 21.4013 25.0185 22.1537 25.0136 23.8287C25.01 24.8692 25.36 25.658 26.127 25.6726C26.8818 25.6872 27.1614 24.7987 27.1638 23.6512ZM67.3909 14.4037H62.0293C61.8251 14.4037 61.6586 14.569 61.6586 14.7744L61.6683 28.9994C61.6683 29.2036 61.8336 29.3702 62.039 29.3702H67.4006C67.6048 29.3702 67.7713 29.2049 67.7713 28.9994L67.7616 14.7744C67.7616 14.5702 67.5963 14.4037 67.3909 14.4037V14.4037ZM82.4169 21.8888C82.4169 27.4716 79.8546 29.8284 75.7231 29.8284C71.5917 29.8284 69.0294 27.4716 69.0294 21.8888C69.0294 16.306 71.5917 13.9491 75.7231 13.9491C79.8546 13.9491 82.4169 16.306 82.4169 21.8888ZM77.1319 21.8888C77.1319 19.9002 76.8062 18.3115 75.7231 18.3115C74.6401 18.3115 74.3144 19.9002 74.3144 21.8888C74.3144 23.8773 74.6401 25.4903 75.7231 25.4903C76.8062 25.4903 77.1319 23.8773 77.1319 21.8888ZM133.598 21.8888C133.598 27.4716 131.036 29.8284 126.904 29.8284C122.773 29.8284 120.211 27.4716 120.211 21.8888C120.211 16.306 122.773 13.9491 126.904 13.9491C131.036 13.9491 133.598 16.306 133.598 21.8888ZM128.313 21.8888C128.313 19.9002 127.987 18.3115 126.903 18.3115C125.819 18.3115 125.493 19.9002 125.493 21.8888C125.493 23.8773 125.819 25.4903 126.903 25.4903C127.987 25.4903 128.313 23.8773 128.313 21.8888ZM159.629 18.3115C159.833 18.3115 160 18.1462 160 17.9408V14.772C160 14.5678 159.835 14.4013 159.629 14.4013H155.6V10.6502C155.6 10.446 155.435 10.2795 155.229 10.2795H151.966C151.781 10.2795 151.623 10.4168 151.6 10.6004C151.291 12.9706 150.108 14.569 148.537 14.9653C148.37 15.0066 148.252 15.1537 148.252 15.325V17.9396C148.252 18.1438 148.417 18.3103 148.623 18.3103H149.482V25.4939C149.482 27.519 150.904 29.8272 154.647 29.8272C157.599 29.8272 159.225 28.7223 159.779 28.2568C159.919 28.1389 159.999 27.9663 159.999 27.7839V24.6735C159.999 24.3781 159.671 24.2031 159.423 24.3647C158.877 24.7245 158.03 25.1852 157.281 25.1852C156.327 25.1852 155.599 24.8643 155.599 23.2611V18.3091H159.628L159.629 18.3115ZM147.897 21.8888C147.897 27.4716 145.335 29.8284 141.203 29.8284C137.072 29.8284 134.51 27.4716 134.51 21.8888C134.51 16.306 137.072 13.9491 141.203 13.9491C145.335 13.9491 147.897 16.306 147.897 21.8888ZM142.612 21.8888C142.612 19.9002 142.286 18.3115 141.202 18.3115C140.118 18.3115 139.792 19.9002 139.792 21.8888C139.792 23.8773 140.118 25.4903 141.202 25.4903C142.286 25.4903 142.612 23.8773 142.612 21.8888ZM93.399 13.9576C91.1187 13.9576 89.3112 14.964 88.4069 17.2711L88.0216 14.7185C87.9936 14.5374 87.8381 14.4037 87.6557 14.4037H84.0749C83.8707 14.4037 83.7041 14.569 83.7041 14.7744V28.9994C83.7041 29.2036 83.8694 29.3702 84.0749 29.3702H89.4401C89.6443 29.3702 89.8108 29.2049 89.8108 28.9994L89.8169 19.5599C89.8169 18.681 90.4101 18.3115 90.9254 18.3115C91.4408 18.3115 92.023 18.5899 92.023 19.5088V28.9982C92.023 29.2024 92.1883 29.369 92.3938 29.369H97.7578C97.962 29.369 98.1285 29.2037 98.1285 28.9982V18.7491C98.1285 15.7857 96.569 13.9576 93.4002 13.9576H93.399ZM121.046 15.0819L119.414 18.4878C119.315 18.6944 119.05 18.7661 118.864 18.6312C118.585 18.4282 118.34 18.3127 117.82 18.3115C117.05 18.3091 115.789 18.7491 115.789 20.4289V28.9994C115.789 29.2036 115.623 29.3702 115.418 29.3702H110.054C109.85 29.3702 109.683 29.2049 109.683 28.9994V14.7732C109.683 14.569 109.848 14.4025 110.054 14.4025H113.635C113.818 14.4025 113.974 14.5362 114.001 14.7173L114.399 17.265C115.291 14.5471 116.858 13.9576 118.565 13.9576C119.791 13.9576 120.557 14.3466 120.918 14.6115C121.067 14.7209 121.128 14.9142 121.047 15.0819H121.046ZM114.684 20.61C114.684 20.61 114.675 20.6015 114.671 20.5979V20.61H114.684ZM107.955 12.685C108.2 12.8308 108.506 12.6509 108.506 12.3653V8.63492C108.506 8.39425 108.361 8.17546 108.142 8.07457C103.144 5.75661 98.9405 7.4413 98.9405 10.7195C98.9405 13.3401 101.809 14.4025 101.809 14.4025H100.138C99.9347 14.4037 99.7706 14.569 99.7706 14.7732V28.9982C99.7706 29.2024 99.936 29.369 100.141 29.369H105.503C105.707 29.369 105.874 29.2037 105.874 28.9982V18.3103H108.138C108.342 18.3103 108.509 18.145 108.509 17.9396V14.7732C108.509 14.5714 108.344 14.4037 108.142 14.4037C106.824 14.4 104.708 13.9224 104.708 12.7008C104.708 11.5874 106.47 11.8037 107.957 12.685H107.955Z" fill="#1C1D1E"/>
</svg>
