<svg width="768" height="142" viewBox="0 0 768 142" fill="none" xmlns="http://www.w3.org/2000/svg">
<path fill-rule="evenodd" clip-rule="evenodd" d="M57.2238 121.251C57.2214 121.251 57.2214 121.248 57.2189 121.248C56.8676 121.093 55.9591 120.933 55.4527 120.853C55.4454 120.853 55.4382 120.848 55.4285 120.846C46.6532 119.607 39.8621 111.228 39.8621 101.069C39.8621 100.41 39.8912 97.0915 39.9469 92.8327V60.5899C39.9469 49.5587 31.0044 40.6145 19.9734 40.6145C8.9958 40.6145 0.0872079 49.469 0.00241037 60.4275C-1.24199e-05 60.4299 -1.24199e-05 60.4348 0.00241037 60.4396C-1.24199e-05 60.4663 1.27955e-09 60.4881 1.27955e-09 60.5147V60.5899V105.296H0.00241037C0.159891 116.366 8.94492 125.352 19.9322 125.822V125.839H56.1699C57.5048 125.839 58.5854 124.758 58.5854 123.422C58.5878 122.465 58.0306 121.641 57.2238 121.251Z" fill="#181313"/>
<path fill-rule="evenodd" clip-rule="evenodd" d="M49.7763 18.1329C49.7787 18.1329 49.7787 18.1353 49.7811 18.1353C50.1324 18.2904 51.041 18.4504 51.5473 18.5304C51.5546 18.5304 51.5619 18.5353 51.5716 18.5377C60.3469 19.7763 67.138 28.1557 67.138 38.3143C67.138 38.9736 67.1089 42.2919 67.0532 46.5507V78.7911C67.0532 89.8223 75.9957 98.7665 87.0266 98.7665C98.0043 98.7665 106.913 89.9119 106.998 78.9535C107 78.9511 107 78.9462 106.998 78.9414C107 78.9147 107 78.8929 107 78.8662V78.7911V34.087H106.998C106.84 23.017 98.0551 14.0316 87.0678 13.5614V13.5444H50.8302C49.4953 13.5444 48.4147 14.6255 48.4147 15.9611C48.4123 16.9185 48.9695 17.7426 49.7763 18.1329Z" fill="#181313"/>
<path d="M329.233 128C297.831 128 272.283 102.43 272.283 71C272.283 39.5701 297.831 14 329.233 14C360.635 14 386.182 39.5701 386.182 71C386.182 102.431 360.635 128 329.233 128ZM329.233 40.7655C312.575 40.7655 299.024 54.3288 299.024 71.0008C299.024 87.672 312.575 101.236 329.233 101.236C345.89 101.236 359.44 87.672 359.44 71.0008C359.44 54.3288 345.89 40.7655 329.233 40.7655Z" fill="#181313"/>
<path d="M452.593 128C421.191 128 395.644 102.43 395.644 71C395.644 39.5701 421.191 14 452.593 14C483.996 14 509.542 39.5701 509.542 71C509.542 102.431 483.996 128 452.593 128ZM452.593 40.7655C435.936 40.7655 422.385 54.3288 422.385 71.0008C422.385 87.672 435.936 101.236 452.593 101.236C469.249 101.236 482.801 87.672 482.801 71.0008C482.801 54.3288 469.249 40.7655 452.593 40.7655Z" fill="#181313"/>
<path d="M750 71.1983C750 70.6495 749.993 70.1032 749.976 69.5601V18.4984C749.976 17.1605 748.891 16.0752 747.555 16.0752H725.64C724.303 16.0752 723.219 17.1605 723.219 18.4984V22.4497V29.05C717.956 24.1145 711.772 20.1511 704.956 17.4535C704.884 17.4244 704.812 17.3985 704.74 17.3693C704.552 17.2949 704.364 17.2228 704.174 17.1549C691.65 12.4768 681.382 14.4743 675.042 16.0695C675.035 16.0719 675.028 16.0719 675.02 16.0744C651.605 23.4379 634.574 45.3627 634.574 71.1975C634.574 95.1747 649.247 115.788 670.08 124.511V124.513C670.219 124.571 670.359 124.629 670.498 124.686C670.527 124.696 670.553 124.708 670.579 124.72C680.745 128.843 695.829 128.749 706.001 124.511C706.066 124.484 706.129 124.458 706.191 124.434C706.206 124.427 706.218 124.422 706.232 124.417C709.197 123.161 712.036 121.662 714.726 119.946C717.76 118.012 720.603 115.8 723.218 113.346V119.946V123.828C723.218 125.166 724.302 126.251 725.639 126.251H747.554C748.891 126.251 749.975 125.166 749.975 123.828V72.834C749.993 72.2901 750 71.7446 750 71.1983ZM692.288 101.836C690.848 101.836 689.432 101.735 688.042 101.542C673.162 99.4676 661.675 86.6489 661.675 71.1975C661.675 55.7411 673.162 42.9249 688.042 40.8505C689.431 40.6579 690.848 40.5567 692.288 40.5567C709.166 40.5567 722.899 54.2996 722.899 71.1975C722.899 88.0912 709.166 101.836 692.288 101.836Z" fill="#181313"/>
<path fill-rule="evenodd" clip-rule="evenodd" d="M260.677 62.3698V124.951C260.677 125.15 260.585 125.338 260.422 125.503C260.032 125.902 259.232 126.176 258.312 126.176H236.927C235.623 126.176 234.564 125.627 234.564 124.951V105.772C234.563 105.721 234.562 105.669 234.56 105.617C234.559 105.563 234.558 105.509 234.557 105.455C234.51 105.044 234.489 104.626 234.489 104.209V102.334C234.489 102.332 234.489 102.33 234.489 102.33V92.236C234.489 92.0207 234.495 91.8054 234.507 91.5901C234.518 91.3894 234.534 91.1887 234.557 90.9896C234.558 90.9386 234.559 90.8868 234.56 90.835C234.562 90.7808 234.563 90.7265 234.564 90.6731V65.8063C234.564 65.774 234.564 65.7424 234.564 65.71C234.564 65.6785 234.564 65.6461 234.564 65.6137C234.564 52.2139 223.711 41.3507 210.323 41.3507C202.722 41.3507 195.939 44.852 191.494 50.3314L191.494 50.3322C187.83 53.98 185.789 61.1865 185.825 65.6137V124.952C185.825 125.374 185.412 125.746 184.784 125.966L184.784 125.967H184.783C184.783 125.967 184.782 125.967 184.782 125.968C184.382 126.259 183.891 126.431 183.36 126.431H161.445C160.108 126.431 159.024 125.345 159.024 124.007V73.0129C159.007 72.4698 159 71.9235 159 71.3772C159 70.8284 159.007 70.2821 159.024 69.739V18.6773C159.024 17.3394 160.108 16.2541 161.445 16.2541H183.36C184.696 16.2541 185.781 17.3394 185.781 18.6773V29.2289C185.833 29.1795 185.887 29.1302 185.94 29.0808C185.975 29.0476 186.011 29.0136 186.047 28.9804C188.888 25.5585 192.332 22.6545 196.215 20.4344C200.099 18.2135 204.423 16.6757 209.023 15.9837C209.217 15.9546 209.412 15.9279 209.609 15.9012C210.096 15.8356 210.586 15.779 211.081 15.7328C211.311 15.711 211.541 15.6915 211.774 15.6746C212.7 15.6049 213.637 15.5693 214.582 15.5693C215.057 15.5693 215.529 15.5782 216 15.596C216.469 15.6139 216.938 15.6406 217.403 15.6754C223.632 16.5681 229.497 18.6004 234.781 21.5546C239.229 24.0401 243.265 27.1772 246.76 30.8371C246.935 31.02 247.109 31.2046 247.28 31.3899C249.001 33.2458 250.584 35.2303 252.014 37.3282C252.3 37.7474 252.58 38.1715 252.854 38.5997C253.128 39.0278 253.395 39.4608 253.656 39.8979C254.048 40.5535 254.425 41.218 254.787 41.8922C255.149 42.5664 255.497 43.2495 255.829 43.9415C255.94 44.1721 256.049 44.4036 256.156 44.6367C256.479 45.3344 256.785 46.0401 257.075 46.754C257.269 47.2307 257.456 47.7107 257.636 48.1938C257.996 49.1602 258.325 50.1403 258.626 51.1334C258.853 51.878 259.061 52.6299 259.253 53.3891C259.331 53.6991 259.407 54.0115 259.479 54.3247C259.631 54.9811 259.771 55.6416 259.898 56.3077C259.957 56.6168 260.014 56.926 260.067 57.2368C260.195 57.9831 260.305 58.7349 260.4 59.4917C260.408 59.5564 260.416 59.6212 260.424 59.6859C260.484 60.1837 260.537 60.6839 260.583 61.1857C260.62 61.5798 260.65 61.974 260.677 62.3698Z" fill="#181313"/>
<path fill-rule="evenodd" clip-rule="evenodd" d="M622.844 62.3698V124.951C622.844 125.15 622.752 125.338 622.59 125.503C622.199 125.902 621.399 126.176 620.479 126.176H599.095C597.79 126.176 596.732 125.627 596.732 124.951V105.772C596.73 105.721 596.729 105.669 596.728 105.617C596.727 105.563 596.725 105.509 596.725 105.455C596.678 105.044 596.657 104.626 596.657 104.209V102.334C596.657 102.332 596.657 102.33 596.657 102.33V92.236C596.657 92.0207 596.662 91.8054 596.674 91.5901C596.686 91.3894 596.702 91.1887 596.725 90.9896C596.725 90.9386 596.727 90.8868 596.728 90.835C596.729 90.7808 596.73 90.7265 596.732 90.6731V65.8063C596.732 65.774 596.732 65.7424 596.731 65.71C596.732 65.6785 596.732 65.6461 596.732 65.6137C596.732 52.2139 585.878 41.3507 572.49 41.3507C564.89 41.3507 558.106 44.852 553.662 50.3314L553.661 50.3322C549.997 53.98 547.956 61.1865 547.993 65.6137V124.952C547.993 125.374 547.579 125.746 546.952 125.966L546.951 125.967H546.95C546.95 125.967 546.949 125.967 546.949 125.968C546.55 126.259 546.058 126.431 545.527 126.431H523.613C522.275 126.431 521.192 125.345 521.192 124.007V73.0129C521.175 72.4698 521.167 71.9235 521.167 71.3772C521.167 70.8284 521.175 70.2821 521.192 69.739V18.6773C521.192 17.3394 522.275 16.2541 523.613 16.2541H545.527C546.864 16.2541 547.948 17.3394 547.948 18.6773V29.2289C548.001 29.1795 548.054 29.1302 548.107 29.0808C548.143 29.0476 548.179 29.0136 548.215 28.9804C551.056 25.5585 554.5 22.6545 558.383 20.4344C562.267 18.2135 566.59 16.6757 571.19 15.9837C571.385 15.9546 571.58 15.9279 571.776 15.9012C572.264 15.8356 572.754 15.779 573.248 15.7328C573.479 15.711 573.709 15.6915 573.941 15.6746C574.868 15.6049 575.804 15.5693 576.749 15.5693C577.224 15.5693 577.696 15.5782 578.167 15.596C578.637 15.6139 579.105 15.6406 579.571 15.6754C585.799 16.5681 591.664 18.6004 596.949 21.5546C601.396 24.0401 605.433 27.1772 608.928 30.8371C609.102 31.02 609.276 31.2046 609.448 31.3899C611.168 33.2458 612.752 35.2303 614.181 37.3282C614.468 37.7474 614.748 38.1715 615.022 38.5997C615.295 39.0278 615.563 39.4608 615.824 39.8979C616.215 40.5535 616.592 41.218 616.954 41.8922C617.317 42.5664 617.664 43.2495 617.997 43.9415C618.107 44.1721 618.217 44.4036 618.323 44.6367C618.646 45.3344 618.952 46.0401 619.243 46.754C619.437 47.2307 619.624 47.7107 619.803 48.1938C620.163 49.1602 620.493 50.1403 620.794 51.1334C621.02 51.878 621.229 52.6299 621.42 53.3891C621.499 53.6991 621.574 54.0115 621.646 54.3247C621.799 54.9811 621.939 55.6416 622.066 56.3077C622.125 56.6168 622.181 56.926 622.235 57.2368C622.363 57.9831 622.472 58.7349 622.567 59.4917C622.575 59.5564 622.583 59.6212 622.591 59.6859C622.651 60.1837 622.705 60.6839 622.751 61.1857C622.787 61.5798 622.818 61.974 622.844 62.3698Z" fill="#181313"/>
</svg>
