<svg width="139" height="30" viewBox="0 0 139 30" fill="none" xmlns="http://www.w3.org/2000/svg">
<path d="M11.187 14.4386C15.1712 14.4386 18.401 11.2063 18.401 7.21928C18.401 3.23218 15.1712 0 11.187 0C7.20278 0 3.97295 3.23218 3.97295 7.21928C3.97295 11.2063 7.20278 14.4386 11.187 14.4386Z" fill="#0F1013"/>
<path d="M24.1513 9.83501C26.153 9.83501 27.7758 8.21108 27.7758 6.2079C27.7758 4.20473 26.153 2.58083 24.1513 2.58083C22.1496 2.58083 20.5269 4.20473 20.5269 6.2079C20.5269 8.21108 22.1496 9.83501 24.1513 9.83501Z" fill="#0F1013"/>
<path d="M3.62444 20.5418C5.62616 20.5418 7.24888 18.918 7.24888 16.9147C7.24888 14.9116 5.62616 13.2876 3.62444 13.2876C1.62272 13.2876 0 14.9116 0 16.9147C0 18.918 1.62272 20.5418 3.62444 20.5418Z" fill="#0F1013"/>
<path d="M23.2452 26.8544C27.4027 26.8544 30.7729 23.4816 30.7729 19.3211C30.7729 15.1607 27.4027 11.788 23.2452 11.788C19.0878 11.788 15.7175 15.1607 15.7175 19.3211C15.7175 23.4816 19.0878 26.8544 23.2452 26.8544Z" fill="#0F1013"/>
<path d="M10.3855 29.4701C12.8876 29.4701 14.916 27.4401 14.916 24.9362C14.916 22.4322 12.8876 20.4024 10.3855 20.4024C7.8833 20.4024 5.8549 22.4322 5.8549 24.9362C5.8549 27.4401 7.8833 29.4701 10.3855 29.4701Z" fill="#0F1013"/>
<path d="M49.2662 14.084C50.2324 14.2899 51.0085 14.773 51.5946 15.5333C52.1806 16.2778 52.4737 17.1331 52.4737 18.0993C52.4737 19.4931 51.9826 20.6019 51.0006 21.4255C50.0344 22.2333 48.6802 22.6372 46.9379 22.6372H39.1687V5.95852H46.6765C48.3713 5.95852 49.6939 6.34658 50.6442 7.1227C51.6104 7.89882 52.0935 8.95213 52.0935 10.2826C52.0935 11.2647 51.8322 12.0804 51.3095 12.7298C50.8026 13.3792 50.1215 13.8306 49.2662 14.084ZM43.2315 12.706H45.8925C46.5577 12.706 47.0646 12.5635 47.413 12.2784C47.7773 11.9774 47.9595 11.5418 47.9595 10.9716C47.9595 10.4014 47.7773 9.96584 47.413 9.66489C47.0646 9.36395 46.5577 9.21347 45.8925 9.21347H43.2315V12.706ZM46.2251 19.3585C46.9062 19.3585 47.4289 19.208 47.7932 18.9071C48.1733 18.5903 48.3634 18.1389 48.3634 17.5528C48.3634 16.9668 48.1654 16.5074 47.7694 16.1748C47.3893 15.8422 46.8587 15.6759 46.1776 15.6759H43.2315V19.3585H46.2251ZM66.6144 15.7947C66.6144 16.1748 66.5907 16.5708 66.5431 16.9826H57.3485C57.4118 17.8062 57.6732 18.4398 58.1325 18.8833C58.6077 19.311 59.1858 19.5248 59.8669 19.5248C60.8806 19.5248 61.5855 19.0971 61.9815 18.2418H66.3056C66.0838 19.113 65.6799 19.897 65.0939 20.5939C64.5236 21.2909 63.803 21.8373 62.9318 22.2333C62.0607 22.6293 61.0865 22.8273 60.0095 22.8273C58.7107 22.8273 57.5544 22.5501 56.5407 21.9957C55.527 21.4413 54.735 20.6494 54.1648 19.6198C53.5946 18.5903 53.3095 17.3865 53.3095 16.0085C53.3095 14.6305 53.5867 13.4267 54.141 12.3972C54.7113 11.3676 55.5032 10.5756 56.5169 10.0213C57.5306 9.4669 58.6948 9.18971 60.0095 9.18971C61.2924 9.18971 62.4329 9.45898 63.4307 9.99751C64.4286 10.536 65.2047 11.3042 65.7591 12.3021C66.3293 13.3 66.6144 14.4642 66.6144 15.7947ZM62.4566 14.7255C62.4566 14.0286 62.219 13.4742 61.7439 13.0624C61.2687 12.6506 60.6747 12.4447 59.962 12.4447C59.2809 12.4447 58.7027 12.6427 58.2276 13.0386C57.7682 13.4346 57.4831 13.9969 57.3722 14.7255H62.4566ZM67.2372 15.9847C67.2372 14.6226 67.4906 13.4267 67.9974 12.3972C68.5201 11.3676 69.225 10.5756 70.112 10.0213C70.999 9.4669 71.9889 9.18971 73.0818 9.18971C74.0163 9.18971 74.8321 9.37978 75.529 9.75993C76.2418 10.1401 76.7882 10.639 77.1684 11.2567V9.37979H81.2311V22.6372H77.1684V20.7603C76.7724 21.378 76.218 21.8769 75.5052 22.2571C74.8083 22.6372 73.9926 22.8273 73.0581 22.8273C71.981 22.8273 70.999 22.5501 70.112 21.9957C69.225 21.4255 68.5201 20.6256 67.9974 19.5961C67.4906 18.5507 67.2372 17.3469 67.2372 15.9847ZM77.1684 16.0085C77.1684 14.9948 76.8832 14.1949 76.313 13.6089C75.7587 13.0228 75.0776 12.7298 74.2698 12.7298C73.462 12.7298 72.773 13.0228 72.2028 13.6089C71.6484 14.1791 71.3712 14.971 71.3712 15.9847C71.3712 16.9984 71.6484 17.8062 72.2028 18.4081C72.773 18.9942 73.462 19.2872 74.2698 19.2872C75.0776 19.2872 75.7587 18.9942 76.313 18.4081C76.8832 17.8221 77.1684 17.0222 77.1684 16.0085ZM82.6498 16.0085C82.6498 14.6305 82.927 13.4267 83.4813 12.3972C84.0515 11.3676 84.8356 10.5756 85.8335 10.0213C86.8472 9.4669 88.0034 9.18971 89.3022 9.18971C90.9654 9.18971 92.3513 9.62529 93.46 10.4964C94.5846 11.3676 95.3211 12.5951 95.6696 14.1791H91.3455C90.9812 13.1654 90.2764 12.6585 89.231 12.6585C88.4865 12.6585 87.8926 12.9515 87.4491 13.5376C87.0056 14.1078 86.7838 14.9314 86.7838 16.0085C86.7838 17.0856 87.0056 17.9171 87.4491 18.5032C87.8926 19.0734 88.4865 19.3585 89.231 19.3585C90.2764 19.3585 90.9812 18.8516 91.3455 17.8379H95.6696C95.3211 19.3902 94.5846 20.6098 93.46 21.4968C92.3355 22.3838 90.9495 22.8273 89.3022 22.8273C88.0034 22.8273 86.8472 22.5501 85.8335 21.9957C84.8356 21.4413 84.0515 20.6494 83.4813 19.6198C82.927 18.5903 82.6498 17.3865 82.6498 16.0085ZM103.165 22.8273C101.866 22.8273 100.694 22.5501 99.6485 21.9957C98.6189 21.4413 97.8032 20.6494 97.2013 19.6198C96.6153 18.5903 96.3222 17.3865 96.3222 16.0085C96.3222 14.6463 96.6232 13.4505 97.2251 12.4209C97.827 11.3755 98.6506 10.5756 99.696 10.0213C100.741 9.4669 101.913 9.18971 103.212 9.18971C104.511 9.18971 105.683 9.4669 106.729 10.0213C107.774 10.5756 108.598 11.3755 109.2 12.4209C109.801 13.4505 110.102 14.6463 110.102 16.0085C110.102 17.3707 109.793 18.5744 109.176 19.6198C108.574 20.6494 107.742 21.4413 106.681 21.9957C105.636 22.5501 104.464 22.8273 103.165 22.8273ZM103.165 19.311C103.941 19.311 104.598 19.0259 105.137 18.4557C105.691 17.8854 105.968 17.0697 105.968 16.0085C105.968 14.9473 105.699 14.1315 105.161 13.5613C104.638 12.9911 103.988 12.706 103.212 12.706C102.42 12.706 101.763 12.9911 101.24 13.5613C100.718 14.1157 100.456 14.9314 100.456 16.0085C100.456 17.0697 100.71 17.8854 101.217 18.4557C101.739 19.0259 102.389 19.311 103.165 19.311ZM119.623 9.23723C121.175 9.23723 122.411 9.74409 123.329 10.7578C124.264 11.7557 124.731 13.1337 124.731 14.8918V22.6372H120.692V15.4383C120.692 14.5513 120.462 13.8623 120.003 13.3713C119.544 12.8803 118.926 12.6347 118.15 12.6347C117.374 12.6347 116.756 12.8803 116.297 13.3713C115.837 13.8623 115.608 14.5513 115.608 15.4383V22.6372H111.545V9.37979H115.608V11.1379C116.02 10.5519 116.574 10.0925 117.271 9.75993C117.968 9.41146 118.752 9.23723 119.623 9.23723ZM132.235 22.8273C131.079 22.8273 130.049 22.6293 129.146 22.2333C128.243 21.8373 127.531 21.2988 127.008 20.6177C126.485 19.9208 126.192 19.1447 126.129 18.2893H130.144C130.192 18.7487 130.405 19.1209 130.786 19.406C131.166 19.6911 131.633 19.8337 132.187 19.8337C132.694 19.8337 133.082 19.7386 133.351 19.5486C133.637 19.3427 133.779 19.0813 133.779 18.7645C133.779 18.3844 133.581 18.1072 133.185 17.933C132.789 17.7429 132.148 17.537 131.261 17.3152C130.31 17.0935 129.518 16.8638 128.885 16.6262C128.251 16.3728 127.705 15.9847 127.245 15.462C126.786 14.9235 126.556 14.2028 126.556 13.3C126.556 12.5397 126.762 11.8507 127.174 11.233C127.602 10.5994 128.22 10.1005 129.027 9.73617C129.851 9.37187 130.825 9.18971 131.95 9.18971C133.613 9.18971 134.92 9.60153 135.87 10.4252C136.836 11.2488 137.39 12.3417 137.533 13.7039H133.779C133.716 13.2446 133.51 12.8803 133.161 12.611C132.829 12.3417 132.385 12.2071 131.831 12.2071C131.356 12.2071 130.991 12.3021 130.738 12.4922C130.485 12.6664 130.358 12.9119 130.358 13.2287C130.358 13.6089 130.556 13.894 130.952 14.084C131.364 14.2741 131.997 14.4642 132.853 14.6542C133.835 14.9077 134.634 15.1611 135.252 15.4145C135.87 15.6521 136.408 16.0481 136.868 16.6025C137.343 17.141 137.588 17.8696 137.604 18.7883C137.604 19.5644 137.383 20.2613 136.939 20.8791C136.511 21.4809 135.886 21.9561 135.062 22.3046C134.254 22.653 133.312 22.8273 132.235 22.8273Z" fill="#0F1013"/>
</svg>
